<svg id="dhl_icons" xmlns="http://www.w3.org/2000/svg" viewBox="0 0 48 48"><path d="M21.5858,26.929,22.6568,28H27a4.0023,4.0023,0,0,1,3.9684,4.5043l3.3543-1.3416L45,20.4854,36.5147,12Zm14.2218-.08a4,4,0,1,1,0-5.6568A4,4,0,0,1,35.8076,26.8492ZM22,10a3,3,0,1,1,3,3A3,3,0,0,1,22,10Zm-6,8a3,3,0,1,1,3,3A3,3,0,0,1,16,18ZM37.2485,32.1431a2,2,0,1,1,1.5186,3.7005l-.0333.0133h0l-10,4A1.994,1.994,0,0,1,27.9926,40H7.9917v2h-4V26h4v3.5l2.8-2.1a2,2,0,0,1,1.2-.4h6a1.9981,1.9981,0,0,1,1.4137.5859L21.82,30h5.1717a2,2,0,0,1,0,4h-8a1,1,0,0,0,0,2h8.6142Z" fill="#d70511"/>
</svg>
