<svg id="dpdhl_icons" xmlns="http://www.w3.org/2000/svg" viewBox="0 0 48 48"><path d="m34,22.3093c-1.0756,1.6198-2.9143,2.6907-5,2.6907s-3.9244-1.0709-5-2.6907c-1.0756,1.6198-2.9143,2.6907-5,2.6907s-3.9244-1.0709-5-2.6907c-1.0756,1.6198-2.9143,2.6907-5,2.6907-.3414,0-.674-.0353-1-.0903v19.0903h33v-19.3501c-.6267.2227-1.298.3501-2,.3501-2.0857,0-3.9244-1.0709-5-2.6907Zm-13,14.6907h-9v-8h9v8Zm15,5h-7v-8.5c0-1.933,1.567-3.5,3.5-3.5s3.5,1.567,3.5,3.5v8.5ZM6.2,16l4.8-8h4l-1.6,8-.4,2v1c0,2.2091-1.7908,4-4,4s-4-1.7909-4-4v-1l1.2-2Zm9.2,0l1.6-8h6v11c0,2.2091-1.7908,4-4,4s-4-1.7909-4-4v-1l.4-2Zm19.2,0l-1.6-8h4l4.8,8,1.2,2v1c0,2.2091-1.7908,4-4,4s-4-1.7909-4-4v-1l-.4-2Zm-9.6-8h6l1.6,8,.4,2v1c0,2.2091-1.7908,4-4,4s-4-1.7909-4-4v-11Z" fill="#d70511"/></svg>