<svg id="uuid-ea3d09df-4baf-4291-8481-a78323ffb60c" data-name="dpdhl_icons" xmlns="http://www.w3.org/2000/svg" viewBox="0 0 48 48"><path d="M12,16H4s0-8,0-8H12s0,8,0,8Zm16-4h0c0-2.21-1.79-4-4-4h0c-2.21,0-4,1.79-4,4h0c0,2.21,1.79,4,4,4h0c2.21,0,4-1.79,4-4Zm16-4h-8v8h8V8Zm-19,15H9v-5h-2v7H23v5h2v-7Zm-13,13h0c0-2.21-1.79-4-4-4h0c-2.21,0-4,1.79-4,4h0c0,2.21,1.79,4,4,4h0c2.21,0,4-1.79,4-4Zm16-4h-8v8h8v-8Zm16,4h0c0-2.21-1.79-4-4-4h0c-2.21,0-4,1.79-4,4h0c0,2.21,1.79,4,4,4h0c2.21,0,4-1.79,4-4Zm-3-17h-2v11h2v-11Z" fill="#d70511"/></svg>