<svg id="dhl_icons" xmlns="http://www.w3.org/2000/svg" viewBox="0 0 48 48"><path d="M30.7539,20.2213H30.08V18.92h.6736a.8232.8232,0,0,1,.5371.1569.5428.5428,0,0,1,.19.4435v.1a.54.54,0,0,1-.19.4468A.835.835,0,0,1,30.7539,20.2213Zm-4.4893,1.5144a.85.85,0,0,0,.7308-.3307,1.596,1.596,0,0,0,.2436-.9572v-.2935a1.5979,1.5979,0,0,0-.2436-.9573.9734.9734,0,0,0-1.4611,0,1.5973,1.5973,0,0,0-.2435.9573v.2935a1.5953,1.5953,0,0,0,.2435.9572A.8491.8491,0,0,0,26.2646,21.7357ZM7,15H41V44H35V25H25V44H23V25H13V44H7Zm22.0731,7.5026H30.08v-1.461h.6736a1.9567,1.9567,0,0,0,1.2708-.3769,1.25,1.25,0,0,0,.4638-1.0238v-.14a1.2459,1.2459,0,0,0-.4671-1.0238A1.9624,1.9624,0,0,0,30.7539,18.1H29.0731Zm-4.7895-2.0144a2.208,2.208,0,0,0,.5171,1.551,2.1845,2.1845,0,0,0,2.9283,0,2.2085,2.2085,0,0,0,.5172-1.551v-.3739a2.2081,2.2081,0,0,0-.5172-1.5509,2.1842,2.1842,0,0,0-2.9283,0,2.2076,2.2076,0,0,0-.5171,1.5509Zm-4.5227,2.0144h1.0072V20.7147H22.449v1.7879h1.0077V18.1H22.449v1.7542H20.7681V18.1H19.7609ZM17.946,21.2751a.3786.3786,0,0,1-.2165.36,1.197,1.197,0,0,1-.5571.1137,2,2,0,0,1-1.1941-.3939l-.4668.7141a2.7239,2.7239,0,0,0,1.6542.5333,2.1543,2.1543,0,0,0,1.3241-.36,1.2038,1.2038,0,0,0,.4771-1.02,1.1748,1.1748,0,0,0-.3035-.8374,1.7641,1.7641,0,0,0-.8573-.47l-.56-.1469a1.01,1.01,0,0,1-.39-.1733.3525.3525,0,0,1-.13-.2868.3592.3592,0,0,1,.2136-.35,1.1334,1.1334,0,0,1,.5-.1037,1.7568,1.7568,0,0,1,1.0472.34l.4538-.72A2.62,2.62,0,0,0,18.23,18.12a2.6585,2.6585,0,0,0-.81-.12,1.98,1.98,0,0,0-1.2508.3568,1.1858,1.1858,0,0,0-.4571.9906,1.1691,1.1691,0,0,0,.29.8273,1.7684,1.7684,0,0,0,.8573.4667l.56.1466Q17.9458,20.9217,17.946,21.2751ZM6,8v5H42V8H6Z" fill="#d70511"/>
</svg>
